<svg width="186" height="55" viewBox="0 0 186 55" fill="none" xmlns="http://www.w3.org/2000/svg">
<path d="M1.41789 37.87C1.03789 37.87 0.809887 37.604 0.733887 37.072C1.77256 31.296 3.19122 24.494 4.98989 16.666C6.76322 9.04073 7.94122 3.93607 8.52389 1.35207C8.62522 1.09873 8.77722 0.883397 8.97989 0.706065C9.20789 0.52873 9.42322 0.440063 9.62589 0.440063C10.0312 0.440063 10.2339 0.668063 10.2339 1.12406C9.62589 4.5694 8.94189 7.85007 8.18189 10.966C7.67522 13.1194 6.94056 16.3494 5.97789 20.656L13.9579 11.726C17.1246 8.23007 20.2279 4.6834 23.2679 1.08606C23.5212 0.883398 23.7872 0.782064 24.0659 0.782064C24.4712 0.782064 24.6739 0.997397 24.6739 1.42807C24.6739 1.70673 24.5726 1.96007 24.3699 2.18807C22.6726 4.21473 19.7972 7.52073 15.7439 12.106C11.5892 16.7927 9.01789 19.7187 8.02989 20.884C8.25789 23.164 8.73922 25.3047 9.47389 27.306C10.2086 29.3074 11.1079 31.0174 12.1719 32.436C13.2359 33.8294 14.3506 34.83 15.5159 35.438C16.4026 35.9447 17.3652 36.198 18.4039 36.198C19.8732 36.198 20.9879 35.6407 21.7479 34.526C22.0012 34.3234 22.2292 34.222 22.4319 34.222C22.9386 34.222 23.1919 34.45 23.1919 34.906C23.1919 35.1847 23.0146 35.5394 22.6599 35.97C22.3052 36.3754 21.8619 36.7554 21.3299 37.11C20.8232 37.4394 20.3672 37.6294 19.9619 37.68C19.2779 37.8067 18.6699 37.87 18.1379 37.87C17.0739 37.87 16.0606 37.6547 15.0979 37.224C14.1352 36.7934 13.1979 36.0967 12.2859 35.134C10.8672 33.7154 9.66389 31.8534 8.67589 29.548C7.68789 27.2427 6.96589 24.8234 6.50989 22.29C6.38322 22.4167 6.14256 22.6574 5.78789 23.012C5.45856 23.3667 5.23056 23.6454 5.10389 23.848C3.78656 29.7254 2.91256 34.0447 2.48189 36.806C2.43122 37.11 2.29189 37.3634 2.06389 37.566C1.86122 37.7687 1.64589 37.87 1.41789 37.87ZM28.5986 37.908C27.7879 37.908 27.1546 37.7814 26.6986 37.528C26.2426 37.2494 25.8753 36.8314 25.5966 36.274C25.0646 35.286 24.7986 34.0954 24.7986 32.702C24.7986 30.27 25.1659 27.9647 25.9006 25.786C26.6353 23.582 27.6359 21.7327 28.9026 20.238C30.1186 18.8194 31.4486 18.11 32.8926 18.11C33.6526 18.11 34.2479 18.4267 34.6786 19.06C35.1346 19.668 35.3626 20.4154 35.3626 21.302C35.3626 22.8474 34.9573 24.19 34.1466 25.33C33.3613 26.47 32.2973 27.42 30.9546 28.18C29.7893 28.864 28.3706 29.548 26.6986 30.232L26.6226 32.968C26.6226 35.096 27.2686 36.16 28.5606 36.16C29.0926 36.16 29.5993 36.0587 30.0806 35.856C30.5873 35.6534 31.1319 35.3747 31.7146 35.02C32.3986 34.6147 32.8799 34.412 33.1586 34.412C33.5893 34.412 33.8046 34.64 33.8046 35.096C33.8046 35.4254 33.4879 35.818 32.8546 36.274C32.2466 36.73 31.5246 37.1227 30.6886 37.452C29.8526 37.756 29.1559 37.908 28.5986 37.908ZM27.0026 28.408C28.6999 27.724 29.9919 27.116 30.8786 26.584C31.7653 26.052 32.4366 25.3807 32.8926 24.57C33.3739 23.7594 33.6146 22.6954 33.6146 21.378C33.6146 20.39 33.1966 19.896 32.3606 19.896C31.6259 19.896 30.7646 20.5674 29.7766 21.91C28.7379 23.2527 27.9019 25.0134 27.2686 27.192C27.0913 27.8 27.0026 28.2054 27.0026 28.408ZM39.9689 37.642C39.3356 37.642 38.9809 37.376 38.9049 36.844C38.4742 33.9307 38.1196 31.0554 37.8409 28.218C37.4356 24.798 37.0429 21.644 36.6629 18.756C36.7389 18.528 36.8782 18.3254 37.0809 18.148C37.3089 17.9454 37.5116 17.844 37.6889 17.844C38.0436 17.844 38.2842 18.0594 38.4109 18.49C38.6896 21.1247 38.9936 23.7214 39.3229 26.28C39.6269 28.4334 39.9816 31.296 40.3869 34.868C42.4389 31.6507 43.9716 28.788 44.9849 26.28C45.9982 23.772 46.5049 21.264 46.5049 18.756C46.5049 16.096 45.7196 14.462 44.1489 13.854C43.6929 13.6767 43.2876 13.5754 42.9329 13.55C42.5529 13.4994 42.2869 13.436 42.1349 13.36C42.0082 13.2587 41.9449 13.1067 41.9449 12.904C41.9449 12.372 42.2996 12.0554 43.0089 11.954C46.5302 12.2074 48.2909 14.3734 48.2909 18.452C48.2909 22.5307 46.8976 27.078 44.1109 32.094C43.1736 33.7914 42.1349 35.3874 40.9949 36.882C40.6149 37.3887 40.2729 37.642 39.9689 37.642ZM49.8032 37.908C48.9418 37.908 48.5112 37.2114 48.5112 35.818C48.5112 35.4634 48.5745 35.1467 48.7012 34.868C48.8278 34.4374 48.9418 33.9434 49.0432 33.386L49.6132 30.84L50.3732 27.496C50.6265 26.2547 50.9305 24.8614 51.2852 23.316C51.3358 23.164 51.3865 22.9107 51.4372 22.556C51.6905 21.4667 51.8172 20.8334 51.8172 20.656V20.276C51.8172 20.0734 51.7285 19.6554 51.5512 19.022C51.5512 18.718 51.6525 18.4394 51.8552 18.186C52.0832 17.9327 52.3492 17.806 52.6532 17.806C52.9318 17.806 53.1725 17.996 53.3752 18.376C53.5778 18.756 53.6792 19.174 53.6792 19.63C53.6792 20.1367 53.0965 22.8727 51.9312 27.838C50.7658 32.8034 50.1832 35.438 50.1832 35.742C50.1832 36.0207 50.3098 36.16 50.5632 36.16C50.6898 36.16 50.9178 35.9954 51.2472 35.666C51.5512 35.362 51.8045 35.21 52.0072 35.21C52.4125 35.21 52.6152 35.4634 52.6152 35.97C52.6152 36.274 52.4378 36.578 52.0832 36.882C51.7285 37.186 51.3232 37.4267 50.8672 37.604C50.4112 37.8067 50.0565 37.908 49.8032 37.908ZM53.6412 14.956C53.2358 14.956 52.9318 14.9054 52.7292 14.804H52.5772C51.8425 14.804 51.4752 14.3734 51.4752 13.512C51.4752 13.0814 51.6525 12.6887 52.0072 12.334C52.3872 11.9794 52.7925 11.802 53.2232 11.802C53.6538 11.802 54.0592 11.954 54.4392 12.258C54.8698 12.6887 55.0852 13.1067 55.0852 13.512C55.0852 13.892 54.9332 14.234 54.6292 14.538C54.3505 14.8167 54.0212 14.956 53.6412 14.956ZM66.5181 37.756C66.1128 37.756 65.8215 37.68 65.6441 37.528C65.4668 37.376 65.4035 37.11 65.4541 36.73L67.3161 25.634C67.5441 24.266 67.6581 23.2147 67.6581 22.48C67.6581 21.264 67.3161 20.656 66.6321 20.656C65.7961 20.656 64.6435 22.1127 63.1741 25.026C61.7301 27.914 60.2355 31.182 58.6901 34.83L58.1581 36.046C57.7021 37.034 57.2461 37.528 56.7901 37.528C56.5368 37.528 56.3721 37.4774 56.2961 37.376C56.2455 37.2494 56.2201 36.996 56.2201 36.616C56.2201 36.236 56.7141 33.31 57.7021 27.838C58.7155 22.366 59.2981 19.4907 59.4501 19.212C59.6021 18.908 59.7288 18.718 59.8301 18.642C59.9568 18.566 60.1848 18.528 60.5141 18.528C60.8181 18.528 61.0588 18.642 61.2361 18.87C61.4388 19.098 61.5401 19.326 61.5401 19.554C61.5401 19.706 61.4135 20.2 61.1601 21.036C60.4001 23.62 59.8048 26.128 59.3741 28.56L58.9941 30.802C59.4248 29.89 59.7415 29.1807 59.9441 28.674C60.6535 27.0274 61.2995 25.5834 61.8821 24.342C62.4901 23.1007 63.1615 21.948 63.8961 20.884C65.0108 19.288 66.0495 18.49 67.0121 18.49C68.7095 18.49 69.5581 19.858 69.5581 22.594C69.5581 23.1767 69.4821 23.924 69.3301 24.836C69.1781 25.748 69.0135 26.6854 68.8361 27.648C68.4815 29.4974 68.2535 30.764 68.1521 31.448L67.8861 33.196C67.6581 34.7667 67.4555 35.9194 67.2781 36.654C67.1008 37.3887 66.8475 37.756 66.5181 37.756ZM95.5522 54.552C95.1469 54.552 94.9189 54.286 94.8682 53.754C95.6535 48.9154 96.3249 45.3307 96.8822 43C97.4649 40.6947 98.2249 38.022 99.1622 34.982C96.8569 37.0594 93.8422 38.098 90.1182 38.098C88.2942 38.098 86.7362 37.566 85.4442 36.502C84.1775 35.438 83.2149 34.0574 82.5562 32.36C81.8975 30.6627 81.5682 28.8514 81.5682 26.926C81.5682 23.278 82.3155 19.4274 83.8102 15.374C85.3302 11.3207 87.2555 7.93873 89.5862 5.22807C91.9422 2.5174 94.2855 1.16207 96.6162 1.16207C98.7189 1.16207 100.404 1.7954 101.67 3.06207C102.962 4.3034 103.798 6.03873 104.178 8.26807C104.077 9.02807 103.874 9.40807 103.57 9.40807C103.317 9.40807 103 9.1294 102.62 8.57207C102.266 8.01473 101.911 7.33073 101.556 6.52007C100.568 4.13873 98.9215 2.94807 96.6162 2.94807C94.3362 2.94807 92.1702 4.25273 90.1182 6.86207C88.0662 9.44607 86.4195 12.5874 85.1782 16.286C83.9369 19.9594 83.3162 23.24 83.3162 26.128C83.3162 29.1427 83.8735 31.6127 84.9882 33.538C86.1029 35.438 87.9015 36.388 90.3842 36.388C94.7669 36.388 97.7562 35.172 99.3522 32.74C99.7575 32.132 100.036 31.562 100.188 31.03C100.34 30.498 100.416 29.9407 100.416 29.358C100.29 29.0034 99.6815 28.2687 98.5922 27.154C97.5029 26.0394 96.4895 25.1527 95.5522 24.494C93.9309 24.8234 92.0815 25.1274 90.0042 25.406C89.4975 25.3554 89.2442 25.1274 89.2442 24.722C89.2442 24.3927 89.3962 24.1014 89.7002 23.848C91.3469 22.6574 92.7782 22.062 93.9942 22.062C94.7289 22.062 95.4382 22.252 96.1222 22.632C99.2129 21.948 102.658 20.998 106.458 19.782C107.066 19.782 107.37 19.9974 107.37 20.428C107.37 20.58 107.32 20.77 107.218 20.998C103.95 26.394 101.493 32.208 99.8462 38.44C99.3142 40.416 98.8962 42.126 98.5922 43.57C98.2882 45.0394 97.8955 46.9774 97.4142 49.384L96.6162 53.488C96.5909 53.7667 96.4515 54.0074 96.1982 54.21C95.9702 54.438 95.7549 54.552 95.5522 54.552ZM101.708 28.066C102.114 27.1794 102.646 26.0647 103.304 24.722C103.988 23.3794 104.457 22.4927 104.71 22.062C102.43 22.822 100.176 23.468 97.9462 24C98.5289 24.5574 99.2002 25.254 99.9602 26.09C100.72 26.926 101.303 27.5847 101.708 28.066ZM121.055 37.604C120.472 37.604 119.927 37.3 119.421 36.692C118.939 36.0587 118.699 35.3874 118.699 34.678C118.699 33.1074 119.117 30.4474 119.953 26.698C119.319 28.066 118.496 29.472 117.483 30.916C116.495 32.3347 115.519 33.5887 114.557 34.678C113.594 35.7674 112.885 36.4767 112.429 36.806C111.795 37.2874 111.099 37.528 110.339 37.528C108.895 37.528 108.173 36.616 108.173 34.792C108.173 33.0187 108.844 30.8147 110.187 28.18C111.529 25.52 113.125 23.2147 114.975 21.264C116.824 19.3387 118.319 18.376 119.459 18.376C120.624 18.376 121.283 18.8827 121.435 19.896C121.511 20.2 121.549 20.5294 121.549 20.884C121.675 20.808 121.815 20.77 121.967 20.77C122.549 20.77 122.841 21.0487 122.841 21.606V21.758L122.385 23.43C122.03 24.6967 121.663 26.5714 121.283 29.054C120.903 31.5367 120.713 33.6014 120.713 35.248L121.093 35.476C121.701 35.856 122.005 36.236 122.005 36.616C122.005 36.8694 121.916 37.0974 121.739 37.3C121.561 37.5027 121.333 37.604 121.055 37.604ZM110.643 35.552C110.921 35.552 111.149 35.4634 111.327 35.286C113.911 33.082 116.203 30.0294 118.205 26.128C119.066 24.5067 119.598 23.4427 119.801 22.936C120.029 22.4294 120.143 21.9354 120.143 21.454C120.143 21.2007 120.079 20.9727 119.953 20.77C119.826 20.5674 119.661 20.466 119.459 20.466C119.205 20.466 118.876 20.58 118.471 20.808C117.457 21.34 116.254 22.4674 114.861 24.19C113.493 25.9127 112.365 27.7367 111.479 29.662C110.541 31.6127 110.073 33.348 110.073 34.868C110.073 35.324 110.263 35.552 110.643 35.552ZM130.145 37.908C129.03 37.908 128.169 37.414 127.561 36.426C126.978 35.438 126.687 34.2094 126.687 32.74C126.687 31.6507 126.75 30.5867 126.877 29.548C127.004 28.484 127.194 27.23 127.447 25.786L127.599 24.798C127.979 22.4167 128.296 20.5674 128.549 19.25C128.6 18.9207 128.65 18.6294 128.701 18.376C128.752 18.1227 128.79 17.8947 128.815 17.692C129.043 16.5014 129.246 15.5387 129.423 14.804C129.55 14.044 129.879 12.3847 130.411 9.82607C130.816 8.0274 131.336 5.30407 131.969 1.65607C132.146 1.25073 132.4 1.04807 132.729 1.04807C133.388 1.04807 133.717 1.32673 133.717 1.88407L133.641 2.15007C133.033 6.25407 132.324 10.1301 131.513 13.778C130.601 17.8567 129.93 20.9727 129.499 23.126C130.36 21.5807 131.184 20.4154 131.969 19.63C132.754 18.8194 133.616 18.414 134.553 18.414C135.49 18.414 136.238 18.7814 136.795 19.516C137.378 20.2254 137.669 21.0487 137.669 21.986C137.669 23.9367 137.365 26.166 136.757 28.674C136.174 31.1567 135.402 33.1834 134.439 34.754C133.172 36.8567 131.741 37.908 130.145 37.908ZM130.145 35.97C131.057 35.97 131.969 35.21 132.881 33.69C134.097 31.7394 134.958 29.2187 135.465 26.128C135.592 25.1654 135.655 24.2534 135.655 23.392C135.655 22.3534 135.554 21.5807 135.351 21.074C135.174 20.542 134.832 20.276 134.325 20.276C133.793 20.276 133.109 20.732 132.273 21.644C131.462 22.5307 130.728 23.6454 130.069 24.988C129.41 26.3054 129.018 27.5467 128.891 28.712C128.714 30.4094 128.625 31.752 128.625 32.74C128.625 34.8934 129.132 35.97 130.145 35.97ZM151.523 37.604C150.94 37.604 150.396 37.3 149.889 36.692C149.408 36.0587 149.167 35.3874 149.167 34.678C149.167 33.1074 149.585 30.4474 150.421 26.698C149.788 28.066 148.964 29.472 147.951 30.916C146.963 32.3347 145.988 33.5887 145.025 34.678C144.062 35.7674 143.353 36.4767 142.897 36.806C142.264 37.2874 141.567 37.528 140.807 37.528C139.363 37.528 138.641 36.616 138.641 34.792C138.641 33.0187 139.312 30.8147 140.655 28.18C141.998 25.52 143.594 23.2147 145.443 21.264C147.292 19.3387 148.787 18.376 149.927 18.376C151.092 18.376 151.751 18.8827 151.903 19.896C151.979 20.2 152.017 20.5294 152.017 20.884C152.144 20.808 152.283 20.77 152.435 20.77C153.018 20.77 153.309 21.0487 153.309 21.606V21.758L152.853 23.43C152.498 24.6967 152.131 26.5714 151.751 29.054C151.371 31.5367 151.181 33.6014 151.181 35.248L151.561 35.476C152.169 35.856 152.473 36.236 152.473 36.616C152.473 36.8694 152.384 37.0974 152.207 37.3C152.03 37.5027 151.802 37.604 151.523 37.604ZM141.111 35.552C141.39 35.552 141.618 35.4634 141.795 35.286C144.379 33.082 146.672 30.0294 148.673 26.128C149.534 24.5067 150.066 23.4427 150.269 22.936C150.497 22.4294 150.611 21.9354 150.611 21.454C150.611 21.2007 150.548 20.9727 150.421 20.77C150.294 20.5674 150.13 20.466 149.927 20.466C149.674 20.466 149.344 20.58 148.939 20.808C147.926 21.34 146.722 22.4674 145.329 24.19C143.961 25.9127 142.834 27.7367 141.947 29.662C141.01 31.6127 140.541 33.348 140.541 34.868C140.541 35.324 140.731 35.552 141.111 35.552ZM156.395 38.136C156.041 38.136 155.863 37.908 155.863 37.452L156.737 32.93L158.333 24.912C159.043 21.3654 159.397 19.592 159.397 19.592C159.499 19.0347 159.638 18.6294 159.815 18.376C159.993 18.1227 160.221 17.996 160.499 17.996C160.753 17.996 160.943 18.0594 161.069 18.186C161.221 18.3127 161.297 18.5407 161.297 18.87C161.297 19.4527 161.12 20.3394 160.765 21.53C160.588 22.1127 160.461 22.6067 160.385 23.012C160.284 23.3667 160.17 23.772 160.043 24.228C159.917 24.6587 159.777 25.1654 159.625 25.748C160.309 24.2027 160.955 22.974 161.563 22.062C162.171 21.1247 162.931 20.238 163.843 19.402C164.705 18.6674 165.566 18.3 166.427 18.3C167.061 18.3 167.593 18.4394 168.023 18.718C168.454 18.9714 168.669 19.2754 168.669 19.63C168.669 19.9087 168.568 20.1367 168.365 20.314C168.163 20.466 167.909 20.542 167.605 20.542C167.377 20.542 167.162 20.4914 166.959 20.39C166.807 20.2634 166.605 20.2 166.351 20.2C166.022 20.2 165.541 20.428 164.907 20.884C163.717 21.7454 162.703 22.8854 161.867 24.304C161.057 25.6974 160.411 27.116 159.929 28.56C159.473 29.9787 158.979 31.7014 158.447 33.728L158.105 35.134C157.725 37.1354 157.155 38.136 156.395 38.136ZM177.921 38.212C177.617 38.212 177.339 37.8574 177.085 37.148C176.857 36.4134 176.743 35.742 176.743 35.134C176.743 34.6274 176.819 34.032 176.971 33.348C176.439 34.9187 175.768 36.0714 174.957 36.806C174.147 37.5154 173.108 37.87 171.841 37.87C170.651 37.87 169.751 37.3887 169.143 36.426C168.535 35.438 168.231 34.336 168.231 33.12C168.231 29.3454 168.941 26.1407 170.359 23.506C171.043 22.3154 171.639 21.4287 172.145 20.846C172.652 20.238 173.311 19.668 174.121 19.136C174.907 18.604 175.895 18.338 177.085 18.338C178.251 18.338 179.099 18.908 179.631 20.048L180.277 17.198C181.113 13.5754 181.81 10.396 182.367 7.66007L183.051 4.24007L183.469 2.26407C183.469 1.96007 183.571 1.69407 183.773 1.46607C184.001 1.21273 184.242 1.08606 184.495 1.08606C185.027 1.08606 185.293 1.3774 185.293 1.96007V2.11207C185.293 2.79607 184.863 5.1014 184.001 9.02807C183.115 13.1067 182.545 15.9314 182.291 17.502C182.013 19.1234 181.519 21.4034 180.809 24.342L180.277 26.432C179.695 28.6614 179.264 30.422 178.985 31.714C178.732 33.006 178.618 34.108 178.643 35.02C178.643 35.704 178.757 36.4134 178.985 37.148C178.96 37.4267 178.821 37.6674 178.567 37.87C178.339 38.098 178.124 38.212 177.921 38.212ZM172.183 36.008C172.766 36.008 173.589 35.2734 174.653 33.804C175.743 32.3094 176.693 30.5234 177.503 28.446C178.314 26.3687 178.719 24.456 178.719 22.708C178.719 22.024 178.517 21.3907 178.111 20.808C177.731 20.2254 177.225 19.934 176.591 19.934C175.426 19.934 174.337 20.6687 173.323 22.138C172.31 23.582 171.487 25.3934 170.853 27.572C170.245 29.624 169.941 31.3467 169.941 32.74C169.941 33.6774 170.119 34.4627 170.473 35.096C170.853 35.704 171.423 36.008 172.183 36.008Z" fill="white"/>
</svg>
