<svg width="183" height="52" viewBox="0 0 183 52" fill="none" xmlns="http://www.w3.org/2000/svg">
<path d="M0.648 35.46C0.288 35.46 0.072 35.208 0 34.704C0.984 29.232 2.328 22.788 4.032 15.372C5.712 8.148 6.828 3.312 7.38 0.863999C7.476 0.623999 7.62 0.42 7.812 0.252C8.028 0.0839999 8.232 0 8.424 0C8.808 0 9 0.216 9 0.648C8.424 3.912 7.776 7.02 7.056 9.972C6.576 12.012 5.88 15.072 4.968 19.152L12.528 10.692C15.528 7.38 18.468 4.02 21.348 0.612C21.588 0.42 21.84 0.323999 22.104 0.323999C22.488 0.323999 22.68 0.528 22.68 0.936C22.68 1.2 22.584 1.44 22.392 1.656C20.784 3.576 18.06 6.708 14.22 11.052C10.284 15.492 7.848 18.264 6.912 19.368C7.128 21.528 7.584 23.556 8.28 25.452C8.976 27.348 9.828 28.968 10.836 30.312C11.844 31.632 12.9 32.58 14.004 33.156C14.844 33.636 15.756 33.876 16.74 33.876C18.132 33.876 19.188 33.348 19.908 32.292C20.148 32.1 20.364 32.004 20.556 32.004C21.036 32.004 21.276 32.22 21.276 32.652C21.276 32.916 21.108 33.252 20.772 33.66C20.436 34.044 20.016 34.404 19.512 34.74C19.032 35.052 18.6 35.232 18.216 35.28C17.568 35.4 16.992 35.46 16.488 35.46C15.48 35.46 14.52 35.256 13.608 34.848C12.696 34.44 11.808 33.78 10.944 32.868C9.6 31.524 8.46 29.76 7.524 27.576C6.588 25.392 5.904 23.1 5.472 20.7C5.352 20.82 5.124 21.048 4.788 21.384C4.476 21.72 4.26 21.984 4.14 22.176C2.892 27.744 2.064 31.836 1.656 34.452C1.608 34.74 1.476 34.98 1.26 35.172C1.068 35.364 0.864 35.46 0.648 35.46ZM27.1181 35.496C26.3501 35.496 25.7501 35.376 25.3181 35.136C24.8861 34.872 24.5381 34.476 24.2741 33.948C23.7701 33.012 23.5181 31.884 23.5181 30.564C23.5181 28.26 23.8661 26.076 24.5621 24.012C25.2581 21.924 26.2061 20.172 27.4061 18.756C28.5581 17.412 29.8181 16.74 31.1861 16.74C31.9061 16.74 32.4701 17.04 32.8781 17.64C33.3101 18.216 33.5261 18.924 33.5261 19.764C33.5261 21.228 33.1421 22.5 32.3741 23.58C31.6301 24.66 30.6221 25.56 29.3501 26.28C28.2461 26.928 26.9021 27.576 25.3181 28.224L25.2461 30.816C25.2461 32.832 25.8581 33.84 27.0821 33.84C27.5861 33.84 28.0661 33.744 28.5221 33.552C29.0021 33.36 29.5181 33.096 30.0701 32.76C30.7181 32.376 31.1741 32.184 31.4381 32.184C31.8461 32.184 32.0501 32.4 32.0501 32.832C32.0501 33.144 31.7501 33.516 31.1501 33.948C30.5741 34.38 29.8901 34.752 29.0981 35.064C28.3061 35.352 27.6461 35.496 27.1181 35.496ZM25.6061 26.496C27.2141 25.848 28.4381 25.272 29.2781 24.768C30.1181 24.264 30.7541 23.628 31.1861 22.86C31.6421 22.092 31.8701 21.084 31.8701 19.836C31.8701 18.9 31.4741 18.432 30.6821 18.432C29.9861 18.432 29.1701 19.068 28.2341 20.34C27.2501 21.612 26.4581 23.28 25.8581 25.344C25.6901 25.92 25.6061 26.304 25.6061 26.496ZM38.61 35.244C38.01 35.244 37.674 34.992 37.602 34.488C37.194 31.728 36.858 29.004 36.594 26.316C36.21 23.076 35.838 20.088 35.478 17.352C35.55 17.136 35.682 16.944 35.874 16.776C36.09 16.584 36.282 16.488 36.45 16.488C36.786 16.488 37.014 16.692 37.134 17.1C37.398 19.596 37.686 22.056 37.998 24.48C38.286 26.52 38.622 29.232 39.006 32.616C40.95 29.568 42.402 26.856 43.362 24.48C44.322 22.104 44.802 19.728 44.802 17.352C44.802 14.832 44.058 13.284 42.57 12.708C42.138 12.54 41.754 12.444 41.418 12.42C41.058 12.372 40.806 12.312 40.662 12.24C40.542 12.144 40.482 12 40.482 11.808C40.482 11.304 40.818 11.004 41.49 10.908C44.826 11.148 46.494 13.2 46.494 17.064C46.494 20.928 45.174 25.236 42.534 29.988C41.646 31.596 40.662 33.108 39.582 34.524C39.222 35.004 38.898 35.244 38.61 35.244ZM48.6467 35.496C47.8307 35.496 47.4227 34.836 47.4227 33.516C47.4227 33.18 47.4827 32.88 47.6027 32.616C47.7227 32.208 47.8307 31.74 47.9267 31.212L48.4667 28.8L49.1867 25.632C49.4267 24.456 49.7147 23.136 50.0507 21.672C50.0987 21.528 50.1467 21.288 50.1947 20.952C50.4347 19.92 50.5547 19.32 50.5547 19.152V18.792C50.5547 18.6 50.4707 18.204 50.3027 17.604C50.3027 17.316 50.3987 17.052 50.5907 16.812C50.8067 16.572 51.0587 16.452 51.3467 16.452C51.6107 16.452 51.8387 16.632 52.0307 16.992C52.2227 17.352 52.3187 17.748 52.3187 18.18C52.3187 18.66 51.7667 21.252 50.6627 25.956C49.5587 30.66 49.0067 33.156 49.0067 33.444C49.0067 33.708 49.1267 33.84 49.3667 33.84C49.4867 33.84 49.7027 33.684 50.0147 33.372C50.3027 33.084 50.5427 32.94 50.7347 32.94C51.1187 32.94 51.3107 33.18 51.3107 33.66C51.3107 33.948 51.1427 34.236 50.8067 34.524C50.4707 34.812 50.0867 35.04 49.6547 35.208C49.2227 35.4 48.8867 35.496 48.6467 35.496ZM52.2827 13.752C51.8987 13.752 51.6107 13.704 51.4187 13.608H51.2747C50.5787 13.608 50.2307 13.2 50.2307 12.384C50.2307 11.976 50.3987 11.604 50.7347 11.268C51.0947 10.932 51.4787 10.764 51.8867 10.764C52.2947 10.764 52.6787 10.908 53.0387 11.196C53.4467 11.604 53.6507 12 53.6507 12.384C53.6507 12.744 53.5067 13.068 53.2187 13.356C52.9547 13.62 52.6427 13.752 52.2827 13.752ZM65.2019 35.352C64.8179 35.352 64.5419 35.28 64.3739 35.136C64.2059 34.992 64.1459 34.74 64.1939 34.38L65.9579 23.868C66.1739 22.572 66.2819 21.576 66.2819 20.88C66.2819 19.728 65.9579 19.152 65.3099 19.152C64.5179 19.152 63.4259 20.532 62.0339 23.292C60.6659 26.028 59.2499 29.124 57.7859 32.58L57.2819 33.732C56.8499 34.668 56.4179 35.136 55.9859 35.136C55.7459 35.136 55.5899 35.088 55.5179 34.992C55.4699 34.872 55.4459 34.632 55.4459 34.272C55.4459 33.912 55.9139 31.14 56.8499 25.956C57.8099 20.772 58.3619 18.048 58.5059 17.784C58.6499 17.496 58.7699 17.316 58.8659 17.244C58.9859 17.172 59.2019 17.136 59.5139 17.136C59.8019 17.136 60.0299 17.244 60.1979 17.46C60.3899 17.676 60.4859 17.892 60.4859 18.108C60.4859 18.252 60.3659 18.72 60.1259 19.512C59.4059 21.96 58.8419 24.336 58.4339 26.64L58.0739 28.764C58.4819 27.9 58.7819 27.228 58.9739 26.748C59.6459 25.188 60.2579 23.82 60.8099 22.644C61.3859 21.468 62.0219 20.376 62.7179 19.368C63.7739 17.856 64.7579 17.1 65.6699 17.1C67.2779 17.1 68.0819 18.396 68.0819 20.988C68.0819 21.54 68.0099 22.248 67.8659 23.112C67.7219 23.976 67.5659 24.864 67.3979 25.776C67.0619 27.528 66.8459 28.728 66.7499 29.376L66.4979 31.032C66.2819 32.52 66.0899 33.612 65.9219 34.308C65.7539 35.004 65.5139 35.352 65.2019 35.352ZM94.1479 51.264C93.7639 51.264 93.5479 51.012 93.4999 50.508C94.2439 45.924 94.8799 42.528 95.4079 40.32C95.9599 38.136 96.6799 35.604 97.5679 32.724C95.3839 34.692 92.5279 35.676 88.9999 35.676C87.2719 35.676 85.7959 35.172 84.5719 34.164C83.3719 33.156 82.4599 31.848 81.8359 30.24C81.2119 28.632 80.8999 26.916 80.8999 25.092C80.8999 21.636 81.6079 17.988 83.0239 14.148C84.4639 10.308 86.2879 7.104 88.4959 4.536C90.7279 1.968 92.9479 0.684 95.1559 0.684C97.1479 0.684 98.7439 1.284 99.944 2.484C101.168 3.66 101.96 5.304 102.32 7.416C102.224 8.136 102.032 8.496 101.744 8.496C101.504 8.496 101.204 8.232 100.844 7.704C100.508 7.176 100.172 6.528 99.836 5.76C98.8999 3.504 97.3399 2.376 95.1559 2.376C92.9959 2.376 90.9439 3.612 88.9999 6.084C87.0559 8.532 85.4959 11.508 84.3199 15.012C83.1439 18.492 82.5559 21.6 82.5559 24.336C82.5559 27.192 83.0839 29.532 84.1399 31.356C85.1959 33.156 86.8999 34.056 89.2519 34.056C93.4039 34.056 96.2359 32.904 97.7479 30.6C98.1319 30.024 98.3959 29.484 98.5399 28.98C98.6839 28.476 98.7559 27.948 98.7559 27.396C98.6359 27.06 98.0599 26.364 97.0279 25.308C95.9959 24.252 95.0359 23.412 94.1479 22.788C92.6119 23.1 90.8599 23.388 88.8919 23.652C88.4119 23.604 88.1719 23.388 88.1719 23.004C88.1719 22.692 88.3159 22.416 88.6039 22.176C90.1639 21.048 91.5199 20.484 92.6719 20.484C93.3679 20.484 94.0399 20.664 94.6879 21.024C97.6159 20.376 100.88 19.476 104.48 18.324C105.056 18.324 105.344 18.528 105.344 18.936C105.344 19.08 105.296 19.26 105.2 19.476C102.104 24.588 99.776 30.096 98.2159 36C97.7119 37.872 97.3159 39.492 97.0279 40.86C96.7399 42.252 96.3679 44.088 95.9119 46.368L95.1559 50.256C95.1319 50.52 94.9999 50.748 94.7599 50.94C94.5439 51.156 94.3399 51.264 94.1479 51.264ZM99.98 26.172C100.364 25.332 100.868 24.276 101.492 23.004C102.14 21.732 102.584 20.892 102.824 20.484C100.664 21.204 98.5279 21.816 96.4159 22.32C96.9679 22.848 97.6039 23.508 98.3239 24.3C99.0439 25.092 99.596 25.716 99.98 26.172ZM119.028 35.208C118.476 35.208 117.96 34.92 117.48 34.344C117.024 33.744 116.796 33.108 116.796 32.436C116.796 30.948 117.192 28.428 117.984 24.876C117.384 26.172 116.604 27.504 115.644 28.872C114.708 30.216 113.784 31.404 112.872 32.436C111.96 33.468 111.288 34.14 110.856 34.452C110.256 34.908 109.596 35.136 108.876 35.136C107.508 35.136 106.824 34.272 106.824 32.544C106.824 30.864 107.46 28.776 108.732 26.28C110.004 23.76 111.516 21.576 113.268 19.728C115.02 17.904 116.436 16.992 117.516 16.992C118.62 16.992 119.244 17.472 119.388 18.432C119.46 18.72 119.496 19.032 119.496 19.368C119.616 19.296 119.748 19.26 119.892 19.26C120.444 19.26 120.72 19.524 120.72 20.052V20.196L120.288 21.78C119.952 22.98 119.604 24.756 119.244 27.108C118.884 29.46 118.704 31.416 118.704 32.976L119.064 33.192C119.64 33.552 119.928 33.912 119.928 34.272C119.928 34.512 119.844 34.728 119.676 34.92C119.508 35.112 119.292 35.208 119.028 35.208ZM109.164 33.264C109.428 33.264 109.644 33.18 109.812 33.012C112.26 30.924 114.432 28.032 116.328 24.336C117.144 22.8 117.648 21.792 117.84 21.312C118.056 20.832 118.164 20.364 118.164 19.908C118.164 19.668 118.104 19.452 117.984 19.26C117.864 19.068 117.708 18.972 117.516 18.972C117.276 18.972 116.964 19.08 116.58 19.296C115.62 19.8 114.48 20.868 113.16 22.5C111.864 24.132 110.796 25.86 109.956 27.684C109.068 29.532 108.624 31.176 108.624 32.616C108.624 33.048 108.804 33.264 109.164 33.264ZM128.36 35.496C127.304 35.496 126.488 35.028 125.912 34.092C125.36 33.156 125.084 31.992 125.084 30.6C125.084 29.568 125.144 28.56 125.264 27.576C125.384 26.568 125.564 25.38 125.804 24.012L125.948 23.076C126.308 20.82 126.608 19.068 126.848 17.82C126.896 17.508 126.944 17.232 126.992 16.992C127.04 16.752 127.076 16.536 127.1 16.344C127.316 15.216 127.508 14.304 127.676 13.608C127.796 12.888 128.108 11.316 128.612 8.892C128.996 7.188 129.488 4.608 130.088 1.152C130.256 0.767999 130.496 0.575999 130.808 0.575999C131.432 0.575999 131.744 0.84 131.744 1.368L131.672 1.62C131.096 5.508 130.424 9.18 129.656 12.636C128.792 16.5 128.156 19.452 127.748 21.492C128.564 20.028 129.344 18.924 130.088 18.18C130.832 17.412 131.648 17.028 132.536 17.028C133.424 17.028 134.132 17.376 134.66 18.072C135.212 18.744 135.488 19.524 135.488 20.412C135.488 22.26 135.2 24.372 134.624 26.748C134.072 29.1 133.34 31.02 132.428 32.508C131.228 34.5 129.872 35.496 128.36 35.496ZM128.36 33.66C129.224 33.66 130.088 32.94 130.952 31.5C132.104 29.652 132.92 27.264 133.4 24.336C133.52 23.424 133.58 22.56 133.58 21.744C133.58 20.76 133.484 20.028 133.292 19.548C133.124 19.044 132.8 18.792 132.32 18.792C131.816 18.792 131.168 19.224 130.376 20.088C129.608 20.928 128.912 21.984 128.288 23.256C127.664 24.504 127.292 25.68 127.172 26.784C127.004 28.392 126.92 29.664 126.92 30.6C126.92 32.64 127.4 33.66 128.36 33.66ZM149.333 35.208C148.781 35.208 148.265 34.92 147.785 34.344C147.329 33.744 147.101 33.108 147.101 32.436C147.101 30.948 147.497 28.428 148.289 24.876C147.689 26.172 146.909 27.504 145.949 28.872C145.013 30.216 144.089 31.404 143.177 32.436C142.265 33.468 141.593 34.14 141.161 34.452C140.561 34.908 139.901 35.136 139.181 35.136C137.813 35.136 137.129 34.272 137.129 32.544C137.129 30.864 137.765 28.776 139.037 26.28C140.309 23.76 141.821 21.576 143.573 19.728C145.325 17.904 146.741 16.992 147.821 16.992C148.925 16.992 149.549 17.472 149.693 18.432C149.765 18.72 149.801 19.032 149.801 19.368C149.921 19.296 150.053 19.26 150.197 19.26C150.749 19.26 151.025 19.524 151.025 20.052V20.196L150.593 21.78C150.257 22.98 149.909 24.756 149.549 27.108C149.189 29.46 149.009 31.416 149.009 32.976L149.369 33.192C149.945 33.552 150.233 33.912 150.233 34.272C150.233 34.512 150.149 34.728 149.981 34.92C149.813 35.112 149.597 35.208 149.333 35.208ZM139.469 33.264C139.733 33.264 139.949 33.18 140.117 33.012C142.565 30.924 144.737 28.032 146.633 24.336C147.449 22.8 147.953 21.792 148.145 21.312C148.361 20.832 148.469 20.364 148.469 19.908C148.469 19.668 148.409 19.452 148.289 19.26C148.169 19.068 148.013 18.972 147.821 18.972C147.581 18.972 147.269 19.08 146.885 19.296C145.925 19.8 144.785 20.868 143.465 22.5C142.169 24.132 141.101 25.86 140.261 27.684C139.373 29.532 138.929 31.176 138.929 32.616C138.929 33.048 139.109 33.264 139.469 33.264ZM154.669 35.712C154.333 35.712 154.165 35.496 154.165 35.064L154.993 30.78L156.505 23.184C157.177 19.824 157.513 18.144 157.513 18.144C157.609 17.616 157.741 17.232 157.909 16.992C158.077 16.752 158.293 16.632 158.557 16.632C158.797 16.632 158.977 16.692 159.097 16.812C159.241 16.932 159.313 17.148 159.313 17.46C159.313 18.012 159.145 18.852 158.809 19.98C158.641 20.532 158.521 21 158.449 21.384C158.353 21.72 158.245 22.104 158.125 22.536C158.005 22.944 157.873 23.424 157.729 23.976C158.377 22.512 158.989 21.348 159.565 20.484C160.141 19.596 160.861 18.756 161.725 17.964C162.541 17.268 163.357 16.92 164.173 16.92C164.773 16.92 165.277 17.052 165.685 17.316C166.093 17.556 166.297 17.844 166.297 18.18C166.297 18.444 166.201 18.66 166.009 18.828C165.817 18.972 165.577 19.044 165.289 19.044C165.073 19.044 164.869 18.996 164.677 18.9C164.533 18.78 164.341 18.72 164.101 18.72C163.789 18.72 163.333 18.936 162.733 19.368C161.605 20.184 160.645 21.264 159.853 22.608C159.085 23.928 158.473 25.272 158.017 26.64C157.585 27.984 157.117 29.616 156.613 31.536L156.289 32.868C155.929 34.764 155.389 35.712 154.669 35.712ZM175.782 35.784C175.494 35.784 175.23 35.448 174.99 34.776C174.774 34.08 174.666 33.444 174.666 32.868C174.666 32.388 174.738 31.824 174.882 31.176C174.378 32.664 173.742 33.756 172.974 34.452C172.206 35.124 171.222 35.46 170.022 35.46C168.894 35.46 168.042 35.004 167.466 34.092C166.89 33.156 166.602 32.112 166.602 30.96C166.602 27.384 167.274 24.348 168.618 21.852C169.266 20.724 169.83 19.884 170.31 19.332C170.79 18.756 171.414 18.216 172.182 17.712C172.926 17.208 173.862 16.956 174.99 16.956C176.094 16.956 176.898 17.496 177.402 18.576L178.014 15.876C178.806 12.444 179.466 9.432 179.994 6.84L180.642 3.6L181.038 1.728C181.038 1.44 181.134 1.188 181.326 0.972C181.542 0.732 181.77 0.612 182.01 0.612C182.514 0.612 182.766 0.888 182.766 1.44V1.584C182.766 2.232 182.358 4.416 181.542 8.136C180.702 12 180.162 14.676 179.922 16.164C179.658 17.7 179.19 19.86 178.518 22.644L178.014 24.624C177.462 26.736 177.054 28.404 176.79 29.628C176.55 30.852 176.442 31.896 176.466 32.76C176.466 33.408 176.574 34.08 176.79 34.776C176.766 35.04 176.634 35.268 176.394 35.46C176.178 35.676 175.974 35.784 175.782 35.784ZM170.346 33.696C170.898 33.696 171.678 33 172.686 31.608C173.718 30.192 174.618 28.5 175.386 26.532C176.154 24.564 176.538 22.752 176.538 21.096C176.538 20.448 176.346 19.848 175.962 19.296C175.602 18.744 175.122 18.468 174.522 18.468C173.418 18.468 172.386 19.164 171.426 20.556C170.466 21.924 169.686 23.64 169.086 25.704C168.51 27.648 168.222 29.28 168.222 30.6C168.222 31.488 168.39 32.232 168.726 32.832C169.086 33.408 169.626 33.696 170.346 33.696Z" fill="black"/>
</svg>
